<svg xmlns:xlink="http://www.w3.org/1999/xlink" width="75ex" height="4.176ex" style="font-size: 15px; vertical-align: -1.505ex; max-width: 450;" viewBox="0 -1150.1 32291.5 1798" role="img" focusable="false" xmlns="http://www.w3.org/2000/svg">
<defs>
<path stroke-width="1" id="E1-MJMAIN-28" d="M94 250Q94 319 104 381T127 488T164 576T202 643T244 695T277 729T302 750H315H319Q333 750 333 741Q333 738 316 720T275 667T226 581T184 443T167 250T184 58T225 -81T274 -167T316 -220T333 -241Q333 -250 318 -250H315H302L274 -226Q180 -141 137 -14T94 250Z"></path>
<path stroke-width="1" id="E1-MJMAIN-35" d="M164 157Q164 133 148 117T109 101H102Q148 22 224 22Q294 22 326 82Q345 115 345 210Q345 313 318 349Q292 382 260 382H254Q176 382 136 314Q132 307 129 306T114 304Q97 304 95 310Q93 314 93 485V614Q93 664 98 664Q100 666 102 666Q103 666 123 658T178 642T253 634Q324 634 389 662Q397 666 402 666Q410 666 410 648V635Q328 538 205 538Q174 538 149 544L139 546V374Q158 388 169 396T205 412T256 420Q337 420 393 355T449 201Q449 109 385 44T229 -22Q148 -22 99 32T50 154Q50 178 61 192T84 210T107 214Q132 214 148 197T164 157Z"></path>
<path stroke-width="1" id="E1-MJMAIN-2E" d="M78 60Q78 84 95 102T138 120Q162 120 180 104T199 61Q199 36 182 18T139 0T96 17T78 60Z"></path>
<path stroke-width="1" id="E1-MJMAIN-33" d="M127 463Q100 463 85 480T69 524Q69 579 117 622T233 665Q268 665 277 664Q351 652 390 611T430 522Q430 470 396 421T302 350L299 348Q299 347 308 345T337 336T375 315Q457 262 457 175Q457 96 395 37T238 -22Q158 -22 100 21T42 130Q42 158 60 175T105 193Q133 193 151 175T169 130Q169 119 166 110T159 94T148 82T136 74T126 70T118 67L114 66Q165 21 238 21Q293 21 321 74Q338 107 338 175V195Q338 290 274 322Q259 328 213 329L171 330L168 332Q166 335 166 348Q166 366 174 366Q202 366 232 371Q266 376 294 413T322 525V533Q322 590 287 612Q265 626 240 626Q208 626 181 615T143 592T132 580H135Q138 579 143 578T153 573T165 566T175 555T183 540T186 520Q186 498 172 481T127 463Z"></path>
<path stroke-width="1" id="E1-MJMAIN-31" d="M213 578L200 573Q186 568 160 563T102 556H83V602H102Q149 604 189 617T245 641T273 663Q275 666 285 666Q294 666 302 660V361L303 61Q310 54 315 52T339 48T401 46H427V0H416Q395 3 257 3Q121 3 100 0H88V46H114Q136 46 152 46T177 47T193 50T201 52T207 57T213 61V578Z"></path>
<path stroke-width="1" id="E1-MJMAIN-39" d="M352 287Q304 211 232 211Q154 211 104 270T44 396Q42 412 42 436V444Q42 537 111 606Q171 666 243 666Q245 666 249 666T257 665H261Q273 665 286 663T323 651T370 619T413 560Q456 472 456 334Q456 194 396 97Q361 41 312 10T208 -22Q147 -22 108 7T68 93T121 149Q143 149 158 135T173 96Q173 78 164 65T148 49T135 44L131 43Q131 41 138 37T164 27T206 22H212Q272 22 313 86Q352 142 352 280V287ZM244 248Q292 248 321 297T351 430Q351 508 343 542Q341 552 337 562T323 588T293 615T246 625Q208 625 181 598Q160 576 154 546T147 441Q147 358 152 329T172 282Q197 248 244 248Z"></path>
<path stroke-width="1" id="E1-MJMAIN-29" d="M60 749L64 750Q69 750 74 750H86L114 726Q208 641 251 514T294 250Q294 182 284 119T261 12T224 -76T186 -143T145 -194T113 -227T90 -246Q87 -249 86 -250H74Q66 -250 63 -250T58 -247T55 -238Q56 -237 66 -225Q221 -64 221 250T66 725Q56 737 55 738Q55 746 60 749Z"></path>
<path stroke-width="1" id="E1-MJMATHI-77" d="M580 385Q580 406 599 424T641 443Q659 443 674 425T690 368Q690 339 671 253Q656 197 644 161T609 80T554 12T482 -11Q438 -11 404 5T355 48Q354 47 352 44Q311 -11 252 -11Q226 -11 202 -5T155 14T118 53T104 116Q104 170 138 262T173 379Q173 380 173 381Q173 390 173 393T169 400T158 404H154Q131 404 112 385T82 344T65 302T57 280Q55 278 41 278H27Q21 284 21 287Q21 293 29 315T52 366T96 418T161 441Q204 441 227 416T250 358Q250 340 217 250T184 111Q184 65 205 46T258 26Q301 26 334 87L339 96V119Q339 122 339 128T340 136T341 143T342 152T345 165T348 182T354 206T362 238T373 281Q402 395 406 404Q419 431 449 431Q468 431 475 421T483 402Q483 389 454 274T422 142Q420 131 420 107V100Q420 85 423 71T442 42T487 26Q558 26 600 148Q609 171 620 213T632 273Q632 306 619 325T593 357T580 385Z"></path>
<path stroke-width="1" id="E1-MJMAIN-2199" d="M126 -41Q126 -92 121 -97Q121 -98 139 -80T200 -20T281 61T394 173T517 296Q909 690 916 693Q922 695 924 695Q932 695 938 689T944 674Q944 670 943 668Q942 664 546 268Q292 13 222 -57T153 -128Q176 -123 212 -123Q310 -123 400 -179Q417 -190 417 -197Q417 -201 408 -210T394 -220Q392 -220 369 -206T302 -177T204 -162Q131 -162 67 -194Q63 -195 59 -192T55 -183Q55 -180 62 -163T78 -115T86 -45Q86 10 72 54T44 120T29 145Q29 149 38 158T52 168Q59 168 70 151Q126 62 126 -41Z"></path>
<path stroke-width="1" id="E1-MJMAIN-2C" d="M78 35T78 60T94 103T137 121Q165 121 187 96T210 8Q210 -27 201 -60T180 -117T154 -158T130 -185T117 -194Q113 -194 104 -185T95 -172Q95 -168 106 -156T131 -126T157 -76T173 -3V9L172 8Q170 7 167 6T161 3T152 1T140 0Q113 0 96 17Z"></path>
<path stroke-width="1" id="E1-MJMAIN-2196" d="M204 662Q257 662 301 676T369 705T394 720Q398 720 407 711T417 697Q417 688 389 671T310 639T212 623Q176 623 153 628Q151 628 221 557T546 232Q942 -164 943 -168Q944 -170 944 -174Q944 -182 938 -188T924 -195Q922 -195 916 -193Q912 -191 517 204Q440 281 326 394T166 553L121 598Q126 589 126 541Q126 438 70 349Q59 332 52 332Q48 332 39 341T29 355Q29 358 38 372T57 407T77 464T86 545Q86 583 78 614T63 663T55 683Q55 693 65 693Q73 693 82 688Q136 662 204 662Z"></path>
<path stroke-width="1" id="E1-MJMAIN-2198" d="M55 675Q55 683 60 689T75 695Q77 695 83 693Q87 691 482 296Q532 246 605 174T717 62T799 -20T859 -80T878 -97Q874 -93 874 -41Q874 64 929 151Q940 168 947 168Q951 168 960 159T970 145Q970 143 956 121T928 54T913 -45Q913 -83 920 -114T936 -163T944 -185Q942 -194 934 -194Q932 -194 914 -186T864 -170T795 -162Q743 -162 698 -176T630 -205T605 -220Q601 -220 592 -211T582 -197Q582 -187 611 -170T691 -138T787 -123Q824 -123 847 -128Q848 -128 778 -57T453 268Q58 664 56 668Q55 670 55 675Z"></path>
<path stroke-width="1" id="E1-MJMAIN-2197" d="M582 697Q582 701 591 710T605 720Q607 720 630 706T697 677T795 662Q830 662 863 670T914 686T934 694Q942 694 944 685Q944 680 936 663T921 615T913 545Q913 490 927 446T956 379T970 355Q970 351 961 342T947 332Q940 332 929 349Q874 436 874 541Q874 590 878 598L832 553Q787 508 673 395T482 204Q87 -191 83 -193Q77 -195 75 -195Q67 -195 61 -189T55 -174Q55 -170 56 -168Q58 -164 453 232Q707 487 777 557T847 628Q824 623 787 623Q689 623 599 679Q582 690 582 697Z"></path>
<path stroke-width="1" id="E1-MJMAIN-2193" d="M473 86Q483 86 483 67Q483 63 483 61T483 56T481 53T480 50T478 48T474 47T470 46T464 44Q428 35 391 14T316 -55T264 -168Q264 -170 263 -173T262 -180T261 -184Q259 -194 251 -194Q242 -194 238 -176T221 -121T180 -49Q169 -34 155 -21T125 2T95 20T67 33T44 42T27 47L21 49Q17 53 17 67Q17 87 28 87Q33 87 42 84Q158 52 223 -45L230 -55V312Q230 391 230 482T229 591Q229 662 231 676T243 693Q244 694 251 694Q264 692 270 679V-55L277 -45Q307 1 353 33T430 76T473 86Z"></path>
<path stroke-width="1" id="E1-MJMAIN-2191" d="M27 414Q17 414 17 433Q17 437 17 439T17 444T19 447T20 450T22 452T26 453T30 454T36 456Q80 467 120 494T180 549Q227 607 238 678Q240 694 251 694Q259 694 261 684Q261 677 265 659T284 608T320 549Q340 525 363 507T405 479T440 463T467 455T479 451Q483 447 483 433Q483 413 472 413Q467 413 458 416Q342 448 277 545L270 555V-179Q262 -193 252 -193H250H248Q236 -193 230 -179V555L223 545Q192 499 146 467T70 424T27 414Z"></path>
<path stroke-width="1" id="E1-MJMAIN-2192" d="M56 237T56 250T70 270H835Q719 357 692 493Q692 494 692 496T691 499Q691 511 708 511H711Q720 511 723 510T729 506T732 497T735 481T743 456Q765 389 816 336T935 261Q944 258 944 250Q944 244 939 241T915 231T877 212Q836 186 806 152T761 85T740 35T732 4Q730 -6 727 -8T711 -11Q691 -11 691 0Q691 7 696 25Q728 151 835 230H70Q56 237 56 250Z"></path>
<path stroke-width="1" id="E1-MJMAIN-2190" d="M944 261T944 250T929 230H165Q167 228 182 216T211 189T244 152T277 96T303 25Q308 7 308 0Q308 -11 288 -11Q281 -11 278 -11T272 -7T267 2T263 21Q245 94 195 151T73 236Q58 242 55 247Q55 254 59 257T73 264Q121 283 158 314T215 375T247 434T264 480L267 497Q269 503 270 505T275 509T288 511Q308 511 308 500Q308 493 303 475Q293 438 278 406T246 352T215 315T185 287T165 270H929Q944 261 944 250Z"></path>
</defs>
<g stroke="currentColor" fill="currentColor" stroke-width="0" transform="matrix(1 0 0 -1 0 0)">
<g transform="translate(28953,0)">
<g id="mjx-eqn-5.3.19" transform="translate(0,208)">
 <use xlink:href="#E1-MJMAIN-28"></use>
 <use xlink:href="#E1-MJMAIN-35" x="389" y="0"></use>
 <use xlink:href="#E1-MJMAIN-2E" x="890" y="0"></use>
 <use xlink:href="#E1-MJMAIN-33" x="1168" y="0"></use>
 <use xlink:href="#E1-MJMAIN-2E" x="1669" y="0"></use>
 <use xlink:href="#E1-MJMAIN-31" x="1947" y="0"></use>
 <use xlink:href="#E1-MJMAIN-39" x="2448" y="0"></use>
 <use xlink:href="#E1-MJMAIN-29" x="2948" y="0"></use>
</g>
</g>
<g transform="translate(7552,0)">
<g transform="translate(-11,0)">
<g transform="translate(0,208)">
 <use xlink:href="#E1-MJMATHI-77" x="0" y="0"></use>
 <use xlink:href="#E1-MJMAIN-2199" x="994" y="0"></use>
 <use xlink:href="#E1-MJMAIN-2C" x="1994" y="0"></use>
 <use xlink:href="#E1-MJMATHI-77" x="2606" y="0"></use>
 <use xlink:href="#E1-MJMAIN-2196" x="3600" y="0"></use>
 <use xlink:href="#E1-MJMAIN-2C" x="4601" y="0"></use>
 <use xlink:href="#E1-MJMATHI-77" x="5213" y="0"></use>
 <use xlink:href="#E1-MJMAIN-2198" x="6207" y="0"></use>
 <use xlink:href="#E1-MJMAIN-2C" x="7208" y="0"></use>
 <use xlink:href="#E1-MJMATHI-77" x="7819" y="0"></use>
 <use xlink:href="#E1-MJMAIN-2197" x="8814" y="0"></use>
 <use xlink:href="#E1-MJMAIN-2C" x="9814" y="0"></use>
 <use xlink:href="#E1-MJMATHI-77" x="10426" y="0"></use>
 <use xlink:href="#E1-MJMAIN-2193" x="11420" y="0"></use>
 <use xlink:href="#E1-MJMAIN-2C" x="11921" y="0"></use>
 <use xlink:href="#E1-MJMATHI-77" x="12533" y="0"></use>
 <use xlink:href="#E1-MJMAIN-2191" x="13527" y="0"></use>
 <use xlink:href="#E1-MJMAIN-2C" x="14027" y="0"></use>
<g transform="translate(14639,0)">
 <use xlink:href="#E1-MJMATHI-77" x="142" y="0"></use>
 <use xlink:href="#E1-MJMAIN-2192" x="0" y="-704"></use>
</g>
 <use xlink:href="#E1-MJMAIN-2C" x="15640" y="0"></use>
<g transform="translate(16251,0)">
 <use xlink:href="#E1-MJMATHI-77" x="142" y="0"></use>
 <use xlink:href="#E1-MJMAIN-2190" x="0" y="-704"></use>
</g>
 <use xlink:href="#E1-MJMAIN-2E" x="17252" y="0"></use>
</g>
</g>
</g>
</g>
</svg>